<svg width="16" height="16" viewBox="0 0 16 16" fill="none" xmlns="http://www.w3.org/2000/svg">
<path fill-rule="evenodd" clip-rule="evenodd" d="M4.66684 2.4668C4.18819 2.4668 3.80017 2.85482 3.80017 3.33346V12.6668C3.80017 13.1454 4.18819 13.5335 4.66684 13.5335H9.74376C10.5816 13.5335 11.379 13.189 11.9623 12.5858C12.5446 11.9837 12.8668 11.173 12.8668 10.3335C12.8668 9.49397 12.5446 8.68325 11.9623 8.08108C11.8213 7.93533 11.6679 7.80469 11.5044 7.69036C11.9553 7.11819 12.2002 6.40266 12.2002 5.6668C12.2002 4.83138 11.8845 4.02218 11.3102 3.41918C10.7346 2.81474 9.94453 2.4668 9.11128 2.4668H4.66684ZM9.11128 7.13346C9.45678 7.13346 9.7972 6.98975 10.055 6.71901C10.3143 6.44684 10.4668 6.06905 10.4668 5.6668C10.4668 5.26454 10.3143 4.88675 10.055 4.61458C9.7972 4.34385 9.45678 4.20013 9.11128 4.20013H5.5335V7.13346H9.11128ZM5.5335 8.8668V11.8001H9.74376C10.1028 11.8001 10.4532 11.6529 10.7163 11.3809C10.9803 11.1079 11.1335 10.7316 11.1335 10.3335C11.1335 9.93528 10.9803 9.55901 10.7163 9.28602C10.4532 9.01401 10.1028 8.8668 9.74376 8.8668H5.5335Z" fill="currentColor"/>
</svg>
